<?xml version="1.0" encoding="iso-8859-1"?>
<!-- Uploaded to: SVG Repo, www.svgrepo.com, Generator: SVG Repo Mixer Tools -->
<svg fill="#000000" height="800px" width="800px" version="1.1" id="Layer_1" xmlns="http://www.w3.org/2000/svg" xmlns:xlink="http://www.w3.org/1999/xlink" 
	 viewBox="0 0 512 512" xml:space="preserve">
<g>
	<g>
		<path d="M256,0c-39.623,0-71.86,32.237-71.86,71.86c0,39.623,32.237,71.86,71.86,71.86s71.86-32.237,71.86-71.86
			C327.86,32.237,295.623,0,256,0z M256,125.754c-29.719,0-53.895-24.175-53.895-53.895c0-29.719,24.175-53.895,53.895-53.895
			s53.895,24.175,53.895,53.895C309.895,101.579,285.719,125.754,256,125.754z"/>
	</g>
</g>
<g>
	<g>
		<path d="M256,161.684c-49.526,0-89.825,40.294-89.825,89.825c0,15.833,9.64,23.031,18.974,29.996
			c8.333,6.228,17.789,13.285,24.588,29.018c4.272,9.877,3.904,25.561,3.553,40.733c-0.518,22.605-1.062,45.982,12.57,59.93
			c7.123,7.294,17.263,10.991,30.14,10.991s23.018-3.697,30.14-10.991c13.632-13.948,13.088-37.325,12.57-59.93
			c-0.351-15.171-0.719-30.855,3.553-40.733c6.798-15.733,16.254-22.789,24.588-29.018c9.333-6.965,18.974-14.162,18.974-29.996
			C345.825,201.978,305.526,161.684,256,161.684z M316.105,267.11c-9.132,6.82-21.632,16.153-30.333,36.281
			c-5.833,13.491-5.421,31.175-5.026,48.281c0.439,18.886,0.895,38.421-7.456,46.961c-3.667,3.754-9.324,5.579-17.289,5.579
			s-13.623-1.825-17.289-5.579c-8.351-8.539-7.895-28.074-7.456-46.961c0.395-17.105,0.807-34.789-5.026-48.281
			c-8.702-20.127-21.202-29.46-30.333-36.281c-8.737-6.522-11.754-9.105-11.754-15.601c0-39.623,32.237-71.86,71.86-71.86
			s71.86,32.237,71.86,71.86C327.86,258.004,324.842,260.588,316.105,267.11z"/>
	</g>
</g>
<g>
	<g>
		<path d="M335.676,364.158c-4.562-1.877-9.825,0.259-11.746,4.838c-1.912,4.583,0.254,9.842,4.833,11.75
			c16.307,6.789,26.044,15.566,26.044,23.465c0,16.96-42.254,35.93-98.807,35.93s-98.807-18.969-98.807-35.93
			c0-7.899,9.737-16.675,26.044-23.465c4.579-1.908,6.746-7.167,4.833-11.75c-1.912-4.579-7.175-6.719-11.746-4.838
			c-23.921,9.969-37.096,24.193-37.096,40.053c0,30.724,50.202,53.895,116.772,53.895s116.772-23.171,116.772-53.895
			C372.772,388.351,359.596,374.127,335.676,364.158z"/>
	</g>
</g>
<g>
	<g>
		<path d="M395.939,350.728c-4.096-2.781-9.693-1.706-12.482,2.395c-2.781,4.105-1.71,9.689,2.395,12.474
			c14.526,9.847,31.833,26.096,31.833,47.596c0,43.82-74.044,80.842-161.684,80.842S94.316,457.013,94.316,413.193
			c0-18.386,13-32.833,23.903-41.715c3.842-3.132,4.421-8.789,1.29-12.636c-3.123-3.838-8.781-4.421-12.641-1.294
			c-19.965,16.263-30.517,35.504-30.517,55.645C76.351,468.601,155.263,512,256,512s179.649-43.399,179.649-98.807
			C435.649,389.943,421.912,368.342,395.939,350.728z"/>
	</g>
</g>
</svg>